<svg width="100" height="100" viewBox="0 0 100 100" fill="none" xmlns="http://www.w3.org/2000/svg">
<path d="M15.5713 21.1381L0.121326 36.6074L23.9477 60.5048L0 84.524L15.4017 100L39.3977 75.9741L63.2638 99.8283L78.7138 84.359L15.5713 21.1381Z" fill="white"/>
<path d="M54.8896 60.5052L39.3982 75.9744L63.2641 99.8294L78.7142 84.3598L54.8896 60.5052Z" fill="white"/>
<path d="M54.8896 60.5052L39.3982 75.9744L45.3617 81.9048L54.8896 60.5052Z" fill="black" fill-opacity="0.2"/>
<path d="M76.0037 39.4467L100 15.4208L84.5433 0L60.5541 23.9776L36.6861 0.12148L21.2361 15.5907L84.3787 78.8116L99.8287 63.3423L76.0037 39.4467Z" fill="white"/>
<path d="M45.0625 39.448L60.5541 23.9785L36.6861 0.12207L21.2361 15.5916L45.0625 39.448Z" fill="white"/>
<path d="M45.062 39.4471L60.5537 23.9777L54.5887 18.0457L45.062 39.4471Z" fill="black" fill-opacity="0.2"/>
</svg>
