<svg width="100" height="100" viewBox="0 0 100 100" fill="none" xmlns="http://www.w3.org/2000/svg">
<path d="M98.4716 59.9022C97.8902 58.1365 96.3673 56.9067 94.3978 56.6116C93.4691 56.4726 92.4055 56.5319 91.1469 56.792C88.9532 57.2459 87.3257 57.4187 86.138 57.4521C90.6212 49.8619 94.2667 41.2063 96.3654 33.0585C99.759 19.8837 97.9455 13.8818 95.8264 11.167C90.2183 3.98123 82.0361 0.120977 72.1652 0.00285975C66.8994 -0.0617057 62.2768 0.980837 59.8653 1.73056C57.62 1.33329 55.2059 1.11149 52.6728 1.07047C47.9244 0.99451 43.729 2.0325 40.1442 4.16582C38.1595 3.49281 34.9742 2.54408 31.2958 1.93869C22.6444 0.514446 15.6716 1.62421 10.5714 5.23722C4.3955 9.61172 1.53253 17.2122 2.06202 27.8276C2.23018 31.1979 4.1103 41.4524 7.0706 51.1775C8.77195 56.7673 10.5862 61.4092 12.4629 64.9755C15.1243 70.0325 17.9722 73.0105 21.1692 74.08C22.961 74.6786 26.2168 75.0978 29.6411 72.238C30.0751 72.7651 30.6542 73.2889 31.4227 73.7754C32.3987 74.3926 33.5922 74.8969 34.7841 75.1958C39.0795 76.2726 43.1029 76.0033 46.5356 74.494C46.5568 75.1062 46.573 75.6911 46.5867 76.1962C46.6094 77.0154 46.6321 77.8187 46.6621 78.57C46.8654 83.6494 47.2101 87.5989 48.2312 90.3623C48.2873 90.5142 48.3626 90.7459 48.4422 90.9916C48.9516 92.5556 49.8034 95.1739 51.9706 97.2244C54.2147 99.3487 56.9292 100 59.4153 100C60.6622 100 61.8518 99.8359 62.8953 99.6118C66.6146 98.8124 70.8388 97.5947 73.8945 93.2316C76.7836 89.107 78.188 82.8947 78.4422 73.1062C78.4751 72.8293 78.5054 72.565 78.5346 72.3132L78.5952 71.7959L79.2758 71.8559L79.4512 71.8677C83.2394 72.0409 87.8715 71.2353 90.7163 69.9102C92.9642 68.8642 100.168 65.0507 98.4716 59.9022Z" fill="black"/>
<path d="M91.9943 60.9034C80.7303 63.2335 79.9558 59.4093 79.9558 59.4093C91.8485 41.7134 96.8204 19.251 92.5303 13.7535C80.8254 -1.24285 60.5641 5.84948 60.2259 6.03331L60.1172 6.05306C57.8917 5.5897 55.4014 5.31397 52.6021 5.26801C47.5056 5.18446 43.6393 6.60794 40.7055 8.83887C40.7055 8.83887 4.56141 -6.09249 6.24268 27.6176C6.60022 34.7889 16.4932 81.8804 28.2927 67.6566C32.6056 62.4553 36.773 58.0576 36.773 58.0576C38.8424 59.4363 41.3202 60.1396 43.9177 59.8871L44.1196 59.7154C44.0567 60.3611 44.0855 60.9927 44.2002 61.7405C41.1604 65.1461 42.0539 65.7439 35.9772 66.9984C29.8282 68.2692 33.4403 70.5313 35.7988 71.123C38.658 71.8397 45.2725 72.8553 49.7417 66.5814L49.5637 67.2973C50.7545 68.254 51.5908 73.5195 51.4507 78.2932C51.3105 83.0665 51.217 86.3438 52.1551 88.9036C53.0941 91.4634 54.0292 97.2231 62.0178 95.5068C68.6925 94.0723 72.1516 90.3552 72.633 84.1546C72.9743 79.7467 73.7473 80.3984 73.7958 76.4573L74.4158 74.5917C75.1305 68.6163 74.5294 66.6885 78.6415 67.5852L79.6414 67.6733C82.6676 67.8112 86.6293 67.1849 88.9545 66.1013C93.9608 63.7716 96.9302 59.8814 91.9936 60.9034H91.9943Z" fill="white"/>
<path d="M42.8212 30.8246C41.8062 30.6829 40.8869 30.8139 40.4218 31.1671C40.1605 31.3658 40.0794 31.5959 40.0575 31.7543C39.9991 32.174 40.2923 32.6381 40.4726 32.8774C40.9824 33.5549 41.727 34.0205 42.4641 34.1231C42.5709 34.1383 42.6773 34.1451 42.783 34.1451C44.012 34.1451 45.1297 33.1854 45.2282 32.4771C45.3513 31.5899 44.0669 30.9985 42.8212 30.825V30.8246ZM76.4482 30.8527C76.3512 30.1573 75.1172 29.959 73.9461 30.1223C72.7766 30.2856 71.6426 30.8151 71.7373 31.512C71.813 32.054 72.789 32.9791 73.9442 32.9791C74.042 32.9791 74.1404 32.9727 74.2397 32.9586C75.0108 32.8515 75.5766 32.3605 75.8456 32.0775C76.2546 31.6461 76.4917 31.1652 76.4482 30.8527Z" fill="black"/>
<path d="M95.7425 60.6387C95.313 59.3364 93.9306 58.9174 91.6339 59.3929C84.8145 60.8043 82.3723 59.8267 81.5705 59.2346C86.8711 51.1373 91.2316 41.3491 93.584 32.2169C94.6983 27.891 95.3138 23.8735 95.3642 20.5989C95.4198 17.0048 94.8093 14.3637 93.5503 12.7503C88.4743 6.24631 81.0243 2.75749 72.0063 2.66178C65.8065 2.5919 60.5684 4.18287 59.5529 4.63027C57.4145 4.09703 55.0833 3.76965 52.5453 3.72787C47.8912 3.65229 43.8681 4.76966 40.5374 7.0473C39.0906 6.50723 35.3515 5.2201 30.7789 4.48139C22.8736 3.20527 16.5917 4.17223 12.1088 7.35684C6.75968 11.1571 4.29022 17.9502 4.76858 27.5469C4.92955 30.7756 6.76422 40.708 9.65939 50.2201C13.4704 62.7397 17.6131 69.8271 21.9718 71.2852C22.482 71.4557 23.0702 71.575 23.719 71.575C25.309 71.575 27.2584 70.8564 29.2866 68.4113C31.7604 65.4354 34.3195 62.5317 36.9605 59.704C38.6739 60.6262 40.5563 61.1412 42.4815 61.1928C42.4853 61.2433 42.4902 61.2938 42.4948 61.344C42.1634 61.7402 41.8389 62.1423 41.5214 62.5498C40.1874 64.2479 39.9098 64.6015 35.6159 65.4879C34.3944 65.7409 31.1504 66.4112 31.1027 68.6915C31.0512 71.183 34.9376 72.2294 35.3803 72.3403C36.9234 72.7277 38.41 72.9187 39.8276 72.9187C43.2754 72.9187 46.3096 71.7823 48.7343 69.5837C48.6597 78.4656 49.029 87.2177 50.0925 89.8843C50.9636 92.0673 53.0915 97.4024 59.8128 97.402C60.799 97.402 61.8845 97.2869 63.0787 97.0302C70.0936 95.5224 73.1399 92.4133 74.3181 85.5591C74.9488 81.896 76.0309 73.1488 76.5399 68.4568C77.614 68.7929 78.9968 68.9468 80.4918 68.9464C83.6097 68.9464 87.2074 68.2821 89.4636 67.232C91.9982 66.0516 96.572 63.1552 95.7425 60.6387ZM79.0374 28.9332C79.0143 30.3183 78.8241 31.5758 78.6227 32.8884C78.4056 34.3001 78.1814 35.7596 78.125 37.5314C78.0693 39.2557 78.284 41.0483 78.4916 42.7821C78.9113 46.2838 79.3419 49.8889 77.675 53.4461C77.3981 52.9541 77.1515 52.4456 76.9365 51.9235C76.7293 51.4199 76.2793 50.6109 75.6563 49.4912C73.2327 45.1327 67.5571 34.926 70.4625 30.7611C71.3279 29.5215 73.5243 28.2469 79.0374 28.9332ZM72.3547 5.46659C80.435 5.64547 86.8268 8.67664 91.3521 14.4754C94.8229 18.9232 91.001 39.1615 79.9365 56.6212C79.8253 56.4793 79.7134 56.3379 79.601 56.1969L79.4608 56.0215C82.32 51.2865 81.761 46.6017 81.2633 42.4483C81.0588 40.7437 80.8656 39.1338 80.9148 37.6214C80.9656 36.0187 81.1769 34.6438 81.3815 33.3145C81.6326 31.6764 81.8882 29.9814 81.8178 27.9833C81.8704 27.7736 81.8916 27.526 81.864 27.232C81.6841 25.316 79.5025 19.5814 75.056 14.3911C72.6236 11.5521 69.0766 8.37508 64.2335 6.23226C66.3167 5.79929 69.1653 5.39556 72.3547 5.46659ZM27.1402 66.6216C24.9056 69.3159 23.3626 68.7994 22.8551 68.63C19.5486 67.524 15.7118 60.516 12.3292 49.4031C9.40222 39.7874 7.69178 30.1181 7.55619 27.4067C7.12896 18.8317 9.20186 12.8556 13.7177 9.64398C21.067 4.41796 33.1499 7.54598 38.0051 9.13239C37.9354 9.20152 37.8627 9.26608 37.7937 9.33635C29.8263 17.4048 30.0153 31.1899 30.035 32.0327C30.0343 32.3578 30.0615 32.8181 30.0987 33.4512C30.2358 35.7699 30.491 40.0852 29.8093 44.972C29.176 49.5133 30.5721 53.958 33.6388 57.167C33.9536 57.4956 34.2844 57.8085 34.63 58.1043C33.265 59.5703 30.2983 62.8123 27.1402 66.6216ZM35.6542 55.2304C33.1824 52.6439 32.0598 49.0465 32.5738 45.3594C33.2934 40.1972 33.0279 35.7012 32.8851 33.2856C32.8651 32.9476 32.8472 32.6514 32.837 32.4178C34.0009 31.3829 39.3947 28.485 43.2413 29.3688C44.9964 29.7718 46.066 30.9704 46.5107 33.0319C48.812 43.7054 46.8152 48.154 45.2108 51.729C44.8801 52.4654 44.5677 53.1616 44.301 53.8817L44.0942 54.4385C43.5708 55.846 43.0837 57.1548 42.7819 58.3975C40.1541 58.3899 37.5979 57.2642 35.6542 55.23V55.2304ZM36.0575 69.6247C35.2902 69.4325 34.6001 69.0987 34.1952 68.8218C34.5334 68.6623 35.1353 68.4451 36.1791 68.2293C41.2305 67.1868 42.0107 66.4507 43.7144 64.2817C44.1048 63.7842 44.5476 63.2206 45.1608 62.5339L45.1616 62.5331C46.0747 61.5077 46.4925 61.6816 47.25 61.9968C47.8639 62.2513 48.462 63.0231 48.7044 63.8723C48.8192 64.2734 48.9479 65.0345 48.5264 65.6269C44.9676 70.6236 39.7818 70.5594 36.0575 69.6247ZM62.4939 94.2933C56.3142 95.6211 54.1262 92.4593 52.6843 88.8448C51.7537 86.5113 51.2962 75.9886 51.6208 64.3679C51.6249 64.2133 51.603 64.0641 51.5605 63.9236C51.5226 63.6461 51.4649 63.3717 51.3878 63.1024C50.9053 61.4116 49.7293 59.9972 48.3184 59.4108C47.7579 59.178 46.7292 58.7507 45.493 59.0678C45.7566 57.9786 46.2137 56.7484 46.7095 55.4165L46.9174 54.8563C47.1515 54.2247 47.4454 53.5703 47.756 52.8775C49.435 49.1373 51.7344 44.0142 49.2388 32.4406C48.3041 28.1056 45.1824 25.9886 40.4503 26.4804C37.6134 26.7748 35.0179 27.9225 33.7233 28.5807C33.4449 28.722 33.1904 28.8587 32.9525 28.9916C33.3139 24.624 34.6789 16.4614 39.7852 11.2969C43.0004 8.04579 47.2822 6.44001 52.4991 6.5266C62.7784 6.69523 69.3702 11.9851 73.0902 16.3934C76.296 20.1917 78.0318 24.0182 78.7245 26.082C73.5148 25.5507 69.9716 26.5818 68.1756 29.1569C64.268 34.7581 70.3132 45.6295 73.2186 50.8543C73.7515 51.8118 74.2113 52.6394 74.356 52.9911C75.3021 55.2904 76.527 56.8255 77.4212 57.9459C77.6955 58.2893 77.9613 58.6223 78.1636 58.9133C76.5857 59.3694 73.7515 60.4233 74.0098 65.6915C73.8015 68.3349 72.3202 80.711 71.5677 85.0836C70.5742 90.8603 68.4543 93.0119 62.4939 94.2937V94.2933ZM88.2884 64.6934C86.6749 65.4443 83.9748 66.0075 81.4099 66.1287C78.5768 66.2616 77.1345 65.8104 76.7952 65.5328C76.6361 62.2498 77.8545 61.9068 79.1442 61.5437C79.3468 61.4868 79.5445 61.4309 79.7354 61.3641C79.854 61.4609 79.9839 61.557 80.1263 61.6512C82.4033 63.1583 86.4647 63.3208 92.1986 62.134L92.2615 62.1214C91.488 62.8465 90.1647 63.8195 88.2884 64.6934Z" fill="black"/>
</svg>
