<svg width="100" height="100" viewBox="0 0 100 100" fill="none" xmlns="http://www.w3.org/2000/svg">
<rect x="10.5" y="11.5" width="79" height="55" rx="5.5" stroke="white" stroke-width="5"/>
<rect x="46" y="69" width="8" height="13" fill="white"/>
<rect x="33" y="82" width="34" height="4" rx="2" fill="white"/>
<path d="M33.5354 33.1569C31.9188 34.1779 30.3021 35.199 28.7885 36.1717C25.9051 38.0248 24.3833 39.0009 24.1261 39.1079C23.9925 39.1635 23.8689 39.2574 24.2924 39.4927C25.6318 40.2369 27.0855 40.7181 28.1123 41.2319C29.6172 41.9848 31.6338 42.6507 33.373 43.1664C34.6945 43.4268 35.1238 43.6421 35.4454 43.7278C35.5969 43.771 35.7245 43.8136 35.856 43.8574" stroke="white" stroke-width="5" stroke-linecap="round"/>
<path d="M54.4208 28C53.0594 31.0632 51.8901 33.6623 51.1385 35.337C50.5232 36.708 49.6997 38.6 49.2433 39.8795C48.9599 40.6743 48.5368 41.7869 48.212 42.7158C47.9201 43.5503 47.6756 44.3267 47.4384 44.9081C47.1801 45.5413 46.817 46.3018 46.322 47.5916C46.0625 48.2677 45.7418 48.7539 45.5046 49.2702C45.355 49.5274 45.2248 49.7865 45.1178 50.0437C45.0534 50.1733 44.9683 50.3009 44.8806 50.4324" stroke="white" stroke-width="5" stroke-linecap="round"/>
<path d="M66.9262 33.1569C71.0956 35.7946 74.0943 37.4087 75.3197 37.8167C75.7034 37.9445 75.5666 38.0121 75.4157 38.0765C74.7869 38.3452 73.8519 38.9532 72.3919 39.9627C70.5235 41.2545 68.9077 42.3941 68.0923 42.7802C67.0152 43.2979 66.1978 43.5557 65.6628 43.7272C65.3405 43.8136 64.915 43.8986 64.3478 44.1152" stroke="white" stroke-width="5" stroke-linecap="round"/>
</svg>
