<svg width="100" height="100" viewBox="0 0 100 100" fill="none" xmlns="http://www.w3.org/2000/svg">
<path d="M50.0002 20C36.6665 20 28.3334 26.665 24.9996 39.9937C30.0002 33.3287 35.8337 30.8303 42.4999 32.4959C46.3039 33.4463 49.0224 36.206 52.0323 39.2597C56.9341 44.234 62.6075 49.9912 75.0009 49.9912C88.3334 49.9912 96.6677 43.3262 100 29.9962C95.0009 36.6612 89.1674 39.1609 82.4999 37.4953C78.6973 36.5449 75.9787 33.7851 72.9689 30.7315C68.067 25.7571 62.3924 20 50.0002 20ZM24.9996 49.9912C11.6671 49.9912 3.33274 56.6562 0.000244141 69.9862C4.99962 63.3212 10.8331 60.8215 17.5006 62.4884C21.3032 63.44 24.0218 66.1985 27.0316 69.2509C31.9335 74.2252 37.6081 79.9836 50.0002 79.9836C63.334 79.9836 71.6671 73.3187 75.0009 59.9887C70.0002 66.6537 64.1668 69.1534 57.5006 67.4865C53.6966 66.5374 50.9781 63.7763 47.9682 60.724C43.0664 55.7496 37.393 49.9912 24.9996 49.9912Z" fill="white"/>
</svg>
