<svg width="100" height="100" viewBox="0 0 100 100" fill="none" xmlns="http://www.w3.org/2000/svg">
<path d="M11.9707 85.5601C17.3442 87.0756 21.0768 88.0631 23.227 88.4107C25.7662 88.8211 27.4168 88.4848 27.7644 88.0339C28.1067 87.5899 27.9763 85.7834 26.4252 79.7336C25.2242 75.0492 22.0496 67.4147 20.5246 63.1987C18.9996 58.9828 18.9308 58.5006 18.9297 58.1488C18.9287 57.7971 18.9976 57.5904 19.3086 57.6906C19.6197 57.7908 20.1708 58.2042 21.557 59.3471C22.9431 60.4901 25.1476 62.3501 28.5911 64.6173C32.0346 66.8844 36.6503 69.5022 40.4403 71.4364C44.2304 73.3706 47.0549 74.5417 48.9233 75.2139C51.5713 76.1666 52.6768 76.2348 53.0588 76.2358C53.2468 76.2363 53.372 75.9613 51.5829 72.8236C49.7938 69.686 46.0737 63.6236 40.9194 55.8504C35.7651 48.0772 29.2894 38.777 25.5056 33.0904C21.7219 27.4037 20.8263 25.6126 20.1583 24.001C18.941 21.0642 18.5821 18.9719 18.5122 17.8603C18.4813 17.3696 18.58 17.0242 18.8566 16.9501C19.6007 16.7507 20.8701 17.9845 25.2906 23.5062C29.0804 28.24 35.4979 37.2948 41.7284 44.8018C47.9588 52.3088 53.6767 58.0956 58.1379 62.2134C62.5991 66.3312 65.6303 68.6046 67.123 69.5346C68.6156 70.4646 68.4778 69.9824 65.0656 62.9138C61.6535 55.8452 54.9711 42.2048 51.0808 33.6968C47.1906 25.1888 46.295 22.2265 45.8336 20.4593C45.3723 18.6922 45.3723 18.21 45.5789 18.0649C45.7856 17.9198 46.199 18.1265 49.1331 21.2986C52.0672 24.4707 57.5096 30.6019 61.381 34.6561C65.2525 38.7102 67.3881 40.5013 69.4527 42.0785C71.5174 43.6557 73.4463 44.9646 75.5078 46.1556C79.6208 48.5318 82.1808 49.3757 82.5294 48.9269C82.7668 48.6213 82.4647 47.858 80.2581 42.1985C78.0515 36.5391 73.7803 25.9299 71.8211 20.6712C69.8619 15.4126 70.3441 15.8259 71.6604 17.1067C72.9766 18.3874 75.1122 20.523 76.7979 22.071C78.4837 23.6189 79.6548 24.5145 81.1882 25.4237C84.4942 27.3839 86.9802 28.1511 87.7797 27.9789C86.999 24.5583 84.0638 18.9698 83.924 18.5847C83.9219 18.6129 84.0596 19.0951 84.4104 19.8007" stroke="white" stroke-width="5" stroke-linecap="round"/>
<path d="M64.4561 89.7698C64.8858 89.4014 65.3156 89.0331 68.9444 86.8479C72.5732 84.6628 79.3881 80.6722 86.4095 76.5605" stroke="white" stroke-width="5" stroke-linecap="round"/>
</svg>
