<svg width="100" height="100" viewBox="0 0 100 100" fill="none" xmlns="http://www.w3.org/2000/svg">
<path d="M7.10731 49.9987C7.10731 66.9776 16.974 81.6491 31.2815 88.6029L10.8209 32.5424C8.36813 38.0349 7.10267 43.9834 7.10731 49.9987ZM78.9566 47.8342C78.9566 42.5332 77.0525 38.862 75.4194 36.0046C73.2451 32.4714 71.2079 29.4793 71.2079 25.9461C71.2079 22.0032 74.1975 18.3328 78.4098 18.3328C78.6 18.3328 78.7804 18.3565 78.9664 18.3671C71.3344 11.3758 61.1674 7.10718 50.0005 7.10718C35.0155 7.10718 21.8319 14.7955 14.1623 26.4407C15.1687 26.4709 16.1179 26.4913 16.9226 26.4913C21.4091 26.4913 28.3539 25.9469 28.3539 25.9469C30.6661 25.8106 30.9387 29.2067 28.6298 29.4801C28.6298 29.4801 26.3053 29.7535 23.7197 29.889L39.3396 76.3497L48.7272 48.1974L42.0436 29.8882C39.7338 29.7527 37.5457 29.4793 37.5457 29.4793C35.2343 29.3438 35.5052 25.8098 37.8166 25.9461C37.8166 25.9461 44.9002 26.4905 49.1149 26.4905C53.6006 26.4905 60.5462 25.9461 60.5462 25.9461C62.8601 25.8098 63.1319 29.2059 60.8213 29.4793C60.8213 29.4793 58.4927 29.7527 55.912 29.8882L71.4128 75.9971L75.6903 61.7002C77.5455 55.7674 78.9566 51.5062 78.9566 47.8342Z" fill="white"/>
<path d="M50.753 53.7507L37.8835 91.1461C41.8181 92.3056 45.8986 92.8944 50.0005 92.8944C54.9955 92.8944 59.7856 92.03 64.2443 90.463C64.1247 90.2757 64.0226 90.0779 63.9391 89.8721L50.753 53.7507ZM87.6375 29.4198C87.822 30.7861 87.9265 32.2536 87.9265 33.8304C87.9265 38.183 87.1135 43.076 84.665 49.194L71.563 87.075C84.3149 79.6389 92.8921 65.8235 92.8921 49.9988C92.9035 42.8058 91.096 35.7268 87.6375 29.4198Z" fill="white"/>
<path d="M50.0005 0C22.4309 0 0 22.4292 0 49.9987C0 77.5715 22.4301 100.001 50.0005 100.001C77.5692 100.001 100.003 77.5723 100.003 49.9987C100.003 22.4292 77.5692 0 50.0005 0ZM50.0005 97.7081C23.6952 97.7081 2.29263 76.3056 2.29263 49.9987C2.29263 23.6943 23.6944 2.29345 50.0005 2.29345C76.305 2.29345 97.7059 23.6943 97.7059 49.9987C97.7059 76.3056 76.3041 97.7081 50.0005 97.7081Z" fill="white"/>
</svg>
